# xmcd
#
# Track frame offsets:
#	150
#	24407
#	47397
#	75027
#	90535
#	107460
#	129615
#	146682
#	161102
#	176632
#	196870
#	212600
#	232150
#	249577
#	267517
#	282282
#	297040
#	311682
#
# Disc length: 4380
#
# Revision: 1
# Processed by: cddbd v1.5.1PL0 Copyright (c) Steve Scherf et al.
# Submitted via: CDex 1.51
# Normalized: r0:TSWAP
#
DISCID=f6111a12
DTITLE=Various Artist - 70's and 80's DANCE < YELLOW >
DYEAR=0199
DGENRE=Dance
TTITLE0=BT　EXPRESS - HAVE SOME FUN
TTITLE1=SHALAMAR - A NIGHT TO REMEMBER
TTITLE2=LAKESIDE - FANTASTIC VOYAGE
TTITLE3=VAN McCOY and THE SOUL CITY SYMPHONY - THE HUSTLE
TTITLE4=JOCELYN BROWN - SOMEBODY ELSE'S GUY
TTITLE5=AVERAGE WHITE BAND - LET'S GO ROUND AGAIN
TTITLE6=FREEEZ - I.O.U.
TTITLE7=SANTA ESMERALDA - DON'T LET ME BE MISUNDERSTOOD
TTITLE8=ARABESQUE - HELLO MR. MONKEY
TTITLE9=GENGHISKHAN - MOSKAU
TTITLE10=MOULIN ROUGE - BOYS DON'T CRY
TTITLE11=LIME - UNEXPECTED LOVERS
TTITLE12=PAUL LEKAKIS - BOOM BOOM (LET'S GO BACK TO MY ROOM)
TTITLE13=AFRIKA and THE ZULU KINGS - THE BEACH
TTITLE14=HOT GOSSIP - BREAK ME INTO LITTLE PIECES
TTITLE15=PETE SHELLEY - TELEPHONE OPERATOR
TTITLE16=THE STYLISTICS - CAN'T GIVE YOU ANYTHING (BUT MY LOVE)
TTITLE17=BOYS TOWN GANG - CAN'T TAKE MY EYES OFF YOU
EXTD=YEAR: 199.06.27
EXTT0=
EXTT1=
EXTT2=
EXTT3=
EXTT4=
EXTT5=
EXTT6=
EXTT7=
EXTT8=
EXTT9=
EXTT10=
EXTT11=
EXTT12=
EXTT13=
EXTT14=
EXTT15=
EXTT16=
EXTT17=
PLAYORDER=
